<svg width="60" height="60" viewBox="0 0 60 60" fill="none" xmlns="http://www.w3.org/2000/svg">
<circle cx="30" cy="30" r="30" fill="#EC6E87"/>
<path d="M29.4043 45.74C31.7443 45.65 32.7343 43.4 32.7343 40.88L33.2743 35.21C33.3643 34.31 33.7243 33.77 34.7143 33.77H40.5643C42.8143 33.68 44.2543 31.88 44.2543 29.9C44.2543 27.92 42.2743 26.3 40.1143 26.12L37.6843 26.21L35.8843 26.03L35.7943 25.58C35.7943 24.86 36.0643 24.41 36.2443 23.87L37.6843 18.83C37.7743 18.47 37.7743 18.11 37.7743 17.75C37.7743 15.32 35.8843 13.79 33.9043 13.79C30.2143 13.79 29.4043 19.37 28.3243 24.23C27.9643 26.12 27.9643 26.21 25.8943 26.21C21.8443 26.39 17.4343 26.84 17.4343 30.26C17.5243 32.78 18.7843 33.86 21.5743 33.95L24.9043 33.77C25.4443 33.77 25.8943 33.86 26.4343 34.04C26.0743 36.29 25.5343 38.54 25.5343 40.7C25.5343 43.4 26.7043 45.74 29.0443 45.74H29.4043Z" fill="white"/>
</svg>
