<svg
          width="14"
          height="19"
          viewBox="0 0 14 19"
          fill="none"
          xmlns="http://www.w3.org/2000/svg"
        >
          <path
            d="M7.00001 18.4L6.61601 17.968C6.37601 17.728 0.76001 11.104 0.76001 7.12001C0.76001 3.66401 3.54401 0.880005 7.00001 0.880005C10.456 0.880005 13.24 3.66401 13.24 7.12001C13.24 11.104 7.62401 17.728 7.38401 18.016L7.00001 18.4ZM7.00001 1.84C4.07201 1.84 1.72001 4.19201 1.72001 7.12001C1.72001 10.192 5.75201 15.376 7.00001 16.912C8.24801 15.376 12.28 10.192 12.28 7.12001C12.28 4.19201 9.92801 1.84 7.00001 1.84Z"
            fill="white"
          />
          <path
            d="M6.99997 9.52C5.65598 9.52 4.59998 8.464 4.59998 7.12C4.59998 5.776 5.65598 4.72 6.99997 4.72C8.34397 4.72 9.39997 5.776 9.39997 7.12C9.39997 8.464 8.34397 9.52 6.99997 9.52ZM6.99997 5.68C6.18398 5.68 5.55998 6.304 5.55998 7.12C5.55998 7.936 6.18398 8.56 6.99997 8.56C7.81597 8.56 8.43997 7.936 8.43997 7.12C8.43997 6.304 7.81597 5.68 6.99997 5.68Z"
            fill="white"
          />
        </svg>