<svg width="40" height="40" viewBox="0 0 40 40" fill="none" xmlns="http://www.w3.org/2000/svg">
<circle cx="20" cy="20" r="20" fill="#3B2547"/>
<path d="M29.625 12.7813H25.9062L25.0203 10.2984C24.9591 10.1285 24.8469 9.98169 24.6991 9.87794C24.5513 9.77419 24.3751 9.71859 24.1945 9.71875H15.8055C15.4363 9.71875 15.1055 9.95117 14.9824 10.2984L14.0938 12.7813H10.375C9.16641 12.7813 8.1875 13.7602 8.1875 14.9688V27.4375C8.1875 28.6461 9.16641 29.625 10.375 29.625H29.625C30.8336 29.625 31.8125 28.6461 31.8125 27.4375V14.9688C31.8125 13.7602 30.8336 12.7813 29.625 12.7813ZM29.8438 27.4375C29.8438 27.5578 29.7453 27.6562 29.625 27.6562H10.375C10.2547 27.6562 10.1562 27.5578 10.1562 27.4375V14.9688C10.1562 14.8484 10.2547 14.75 10.375 14.75H15.4801L15.9477 13.443L16.5738 11.6875H23.4234L24.0496 13.443L24.5172 14.75H29.625C29.7453 14.75 29.8438 14.8484 29.8438 14.9688V27.4375ZM20 16.5C17.5828 16.5 15.625 18.4578 15.625 20.875C15.625 23.2922 17.5828 25.25 20 25.25C22.4172 25.25 24.375 23.2922 24.375 20.875C24.375 18.4578 22.4172 16.5 20 16.5ZM20 23.5C18.5508 23.5 17.375 22.3242 17.375 20.875C17.375 19.4258 18.5508 18.25 20 18.25C21.4492 18.25 22.625 19.4258 22.625 20.875C22.625 22.3242 21.4492 23.5 20 23.5Z" fill="white"/>
</svg>
